<?xml version="1.0" encoding="UTF-8"?>
<svg width="145.57mm" height="172.64mm" version="1.1" viewBox="0 0 145.57 172.64" xmlns="http://www.w3.org/2000/svg">
 <g transform="translate(-211.45 88.589)">
  <g transform="matrix(.038898 0 0 -.038898 -60.243 335.27)">
   <path d="m7654.1 7083.6 315.43 196.15-726.43 518.38z" fill="#ce1e27"/>
   <path d="m8812.9 7119.8-843.34 160 450.89 1013.5z" fill="#e12424"/>
   <path d="m8629.9 6648.7-660.3 631.08 843.34-160z" fill="#ce1e27"/>
   <path d="m8629.9 6648.7-660.3 631.08-315.43-196.15z" fill="#b3164a"/>
   <path d="m7969.6 7279.8-261.66 1128.3 712.55-114.84z" fill="#e83321"/>
   <path d="m7243.1 7798.2 464.77 609.96-81.38 555.03z" fill="#f57d14"/>
   <path d="m7969.6 7279.8-261.66 1128.3-464.77-609.96z" fill="#e12424"/>
   <path d="m8455.6 9094.9-747.68-686.73-81.38 555.03z" fill="#f36618"/>
   <path d="m8420.4 8293.3 35.13 801.57-747.68-686.73z" fill="#f04a1c"/>
   <path d="m8708.1 9681.6-252.53-586.71h314.06z" fill="#f8a30d"/>
   <path d="m8316.9 10369 138.69-1274 252.53 586.71z" fill="#fbc808"/>
   <path d="m8170.8 9600 284.82-505.16-138.69 1274z" fill="#fab50a"/>
   <path d="m8420.4 8293.3 35.13 801.57h314.06z" fill="#f57d14"/>
   <path d="m8170.8 9600-544.24-636.86 829.06 131.7z" fill="#f8a30d"/>
   <path d="m8875 9058.2 282.88 683.33 241.19-75.13z" fill="#f04a1c"/>
   <path d="m8892.3 9583.4 265.62 158.14-282.88-683.33z" fill="#f2591a"/>
   <path d="m9011 10896-154.28-716.4 237.38 60.1z" fill="#fab50a"/>
   <path d="m8856.7 10180-154.28-120.3 308.56 836.7z" fill="#fbc808"/>
   <path d="m8892.3 9583.4 201.81 656.76 63.81-498.62z" fill="#f57d14"/>
   <path d="m8856.7 10180 35.57-596.66-189.85 476.36z" fill="#f59f0f"/>
   <path d="m9399.1 9666.4-241.19 75.13-63.81 498.62z" fill="#f59f0f"/>
   <path d="m8856.7 10180 35.57-596.66 201.81 656.76z" fill="#f59111"/>
   <path d="m9680.5 7761.9-256.84-469.39 183.2-167.47z" fill="#ce1e27"/>
   <path d="m8921.9 6458.2 501.76 834.29 183.2-167.47z" fill="#b3164a"/>
   <path d="m8957.9 7137.4 465.75 155.06-501.76-834.29z" fill="#ce1e27"/>
   <path d="m9680.5 7761.9-788.18 646.26 531.34-1115.6z" fill="#e83321"/>
   <path d="m8594.3 8251.2 298.01 156.97 65.59-1270.7z" fill="#ef411e"/>
   <path d="m9495.6 8468.1-603.35-60 788.18-646.26z" fill="#f2591a"/>
   <path d="m9423.6 7292.5-531.34 1115.6 65.59-1270.7z" fill="#e12424"/>
   <path d="m9641.3 9688.7-749.06-1280.6 597.18 642.99z" fill="#f8a30d"/>
   <path d="m8962.5 9012.3-70.19-604.16-298.01-156.97z" fill="#f8a30d"/>
   <path d="m9641.3 9688.7-749.06-1280.6 70.19 604.16z" fill="#fbc808"/>
   <path d="m9495.6 8468.1-603.35-60 597.18 642.99z" fill="#f57d14"/>
   <path d="m9528.1 6744.8 673.49 594.95 136.6-181.38z" fill="#b3164a"/>
   <path d="m10520 7906.9-318.3-567.12 136.6-181.38z" fill="#ce1e27"/>
   <path d="m9747.4 7144 454.15 195.83-673.49-594.95z" fill="#ce1e27"/>
   <path d="m10230 8053.8 290.3-146.9-478.6 658.28z" fill="#f59111"/>
   <path d="m9619.1 8483 610.51-429.23-353.97-305.02z" fill="#f2591a"/>
   <path d="m10520 7906.9-290.3 146.9-28-714.02z" fill="#e83321"/>
   <path d="m9816.9 9313.5-197.13-428.79 224.74 108.49z" fill="#fbc808"/>
   <path d="m10230 8053.8-188.3 511.38-422.21-82.15z" fill="#f57f13"/>
   <path d="m9619.1 8483 225.44 510.14 196.77-427.99z" fill="#f8a30d"/>
   <path d="m9844.5 8993.2-225.44-510.14 0.7 401.65z" fill="#fab50a"/>
   <path d="m10202 7339.8-325.97 409 353.97 305.02z" fill="#ef411e"/>
   <path d="m9747.4 7144 128.18 604.83 325.97-409z" fill="#e12424"/>
  </g>
  <g fill="#000000" font-family="sans-serif" font-size="105.83px" letter-spacing="11.009px" stroke="#ffffff" stroke-linecap="square" stroke-width="15.216" word-spacing=".027522px">
   <text transform="matrix(.57682 0 0 .57682 186.87 -183.14)" x="127.36766" y="380.21298" style="line-height:1.25;mix-blend-mode:normal;paint-order:stroke fill markers;shape-inside:url(#rect1930-3-3);white-space:pre" xml:space="preserve"><tspan x="45.302734" y="380.18818"><tspan>H</tspan></tspan></text>
   <text transform="matrix(.57682 0 0 .57682 235.81 -183.52)" x="155.36931" y="380.21298" style="line-height:1.25;mix-blend-mode:normal;paint-order:stroke fill markers;shape-inside:url(#rect1930-3-3);white-space:pre" xml:space="preserve"><tspan x="45.302734" y="380.18818"><tspan>B</tspan></tspan></text>
   <text transform="matrix(.57682 0 0 .57682 281.73 -186.28)" x="183.37096" y="380.21298" style="line-height:1.25;mix-blend-mode:normal;paint-order:stroke fill markers;shape-inside:url(#rect1930-3-3);white-space:pre" xml:space="preserve"><tspan x="45.302734" y="380.18818"><tspan>H</tspan></tspan></text>
  </g>
 </g>
</svg>
